<?xml version="1.0" encoding="UTF-8" standalone="no"?>
<svg width="32px" height="32px" viewBox="0 0 32 32" version="1.1" xmlns="http://www.w3.org/2000/svg" xmlns:xlink="http://www.w3.org/1999/xlink">
    <!-- Generator: Sketch 44.1 (41455) - http://www.bohemiancoding.com/sketch -->
    <title>_Chat 12</title>
    <desc>Created with Sketch.</desc>
    <defs></defs>
    <g id="Page-2-Copy" stroke="none" stroke-width="1" fill="none" fill-rule="evenodd">
        <g id="146" stroke="#979797">
            <path d="M2.991155,26 C2.44304564,26 2,25.5560312 2,25.0059397 L2,12.9940603 C2,12.4457357 2.4448178,12 2.991155,12 L21.008845,12 C21.5569544,12 22,12.4439688 22,12.9940603 L22,25.0059397 C22,25.5542643 21.5551822,26 21.008845,26 L15.2467532,26 C14.8913743,26 14.5626941,26.1886078 14.3833813,26.495432 L12.045719,30.495432 L13.727823,30.4258243 L10.9226282,26.4258243 C10.7354434,26.1589126 10.4299022,26 10.1038961,26 L2.991155,26 L2.991155,26 Z M9.28516403,27.5741757 L12.0903588,31.5741757 C12.5088672,32.1709377 13.4046905,32.1338674 13.7724629,31.504568 L16.1101252,27.504568 L15.2467532,28 L21.008845,28 C22.6606757,28 24,26.6579119 24,25.0059397 L24,12.9940603 C24,11.3403301 22.6624568,10 21.008845,10 L2.991155,10 C1.3393243,10 0,11.3420881 0,12.9940603 L0,25.0059397 C0,26.6596699 1.33754318,28 2.991155,28 L10.1038961,28 L9.28516403,27.5741757 L9.28516403,27.5741757 Z" id="Rectangle-726" stroke="none" fill="#95909E" fill-rule="nonzero"></path>
            <path d="M26,18 L29.008845,18 C30.6606757,18 32,16.6579119 32,15.0059397 L32,2.99406028 C32,1.3403301 30.6624568,0 29.008845,0 L10.991155,0 C9.3393243,0 8,1.34208812 8,2.99406028 L8,8 L10,8 L10,2.99406028 C10,2.44573573 10.4448178,2 10.991155,2 L29.008845,2 C29.5569544,2 30,2.44396878 30,2.99406028 L30,15.0059397 C30,15.5542643 29.5551822,16 29.008845,16 L26,16 L26,18 L26,18 Z" id="Rectangle-736" stroke="none" fill="#2A2630" fill-rule="evenodd"></path>
        </g>
    </g>
</svg>